<?xml version="1.0" standalone="no"?><!DOCTYPE svg PUBLIC "-//W3C//DTD SVG 1.1//EN" "http://www.w3.org/Graphics/SVG/1.1/DTD/svg11.dtd"><svg t="1620744534185" class="icon" viewBox="0 0 1024 1024" version="1.1" xmlns="http://www.w3.org/2000/svg" p-id="8213" xmlns:xlink="http://www.w3.org/1999/xlink" width="128" height="128"><defs><style type="text/css"></style></defs><path d="M280 872H163.04C90.64 872 32 813.36 32 740.96V283.04C32 210.64 90.64 152 163.04 152H280v720z" fill="#FF826E" p-id="8214"></path><path d="M300 892H163.04c-83.28 0-151.04-67.76-151.04-151.04V283.04c0-83.28 67.76-151.04 151.04-151.04H300v760z m-136.96-720c-61.2 0-111.04 49.84-111.04 111.04v457.84c0 61.28 49.84 111.04 111.04 111.04H260v-680H163.04z" p-id="8215"></path><path d="M861.68 892H162.32c-82.88 0-150.32-67.44-150.32-150.32V282.32c0-82.88 67.44-150.32 150.32-150.32h699.28c82.88 0 150.32 67.44 150.32 150.32v96.64l-20.64-0.64c-0.96 0-2-0.08-2.96-0.16-0.56 0-1.04-0.08-1.6-0.08-36.88 0-75.28 17.12-102.72 45.84-25.52 26.72-38.8 59.84-37.28 93.28 3.52 79.04 65.04 140.88 140 140.88 1.2 0 2.4-0.08 3.52-0.08l21.6-0.8V741.6c0.16 82.96-67.28 150.4-150.16 150.4z m-699.36-720c-60.88 0-110.32 49.52-110.32 110.32V741.6c0 60.88 49.52 110.32 110.32 110.32h699.28c60.88 0 110.32-49.52 110.32-110.32v-44.16c-89.6-7.6-160.88-83.28-165.12-178.48-2-44.48 15.2-88.08 48.32-122.72 31.76-33.2 73.6-53.68 116.8-57.52v-56.4c0-60.88-49.52-110.32-110.32-110.32H162.32z" p-id="8216"></path><path d="M393.12 431.04c0-24.72 6.64-44.4 19.84-58.96 13.2-14.56 31.04-21.84 53.44-21.84 21.52 0 38.24 6.72 50.32 20.08 12.08 13.44 18.08 32.08 18.08 56.08 0 23.84-6.64 43.2-19.92 58s-30.96 22.24-52.96 22.24c-20.8 0-37.52-6.88-50-20.72-12.56-13.76-18.8-32.08-18.8-54.88z m30.08-1.92c0 16.8 3.68 29.76 10.96 38.88 7.28 9.12 17.28 13.68 29.92 13.68 13.04 0 23.04-4.72 30.16-14.16 7.12-9.44 10.64-22.72 10.64-39.92 0-16.8-3.52-29.76-10.48-38.96-6.96-9.2-16.8-13.76-29.36-13.76-12.88 0-23.12 4.8-30.56 14.32-7.52 9.52-11.28 22.8-11.28 39.92z m243.36-74.48L472.24 659.2h-32.64l194.32-304.48h32.64zM574.4 586.32c0-24.72 6.64-44.48 19.84-59.28 13.2-14.8 30.96-22.16 53.2-22.16 21.36 0 38.08 6.72 50.16 20.24 12.08 13.44 18.16 32.48 18.16 56.96 0 23.68-6.72 42.96-20.08 57.68-13.44 14.8-30.96 22.16-52.56 22.16-20.96 0-37.68-7.04-50.08-21.04-12.4-14-18.64-32.16-18.64-54.56z m29.84-1.76c0 16.4 3.68 29.2 10.96 38.4 7.28 9.2 17.28 13.76 29.92 13.76 13.04 0 23.04-4.72 30.16-14.24 7.12-9.52 10.64-22.8 10.64-39.84 0-16.96-3.52-29.92-10.64-38.88-7.12-8.96-16.8-13.44-29.2-13.44-13.28 0-23.6 4.8-30.88 14.32-7.28 9.52-10.96 22.88-10.96 39.92z" p-id="8217"></path></svg>