<?xml version="1.0" standalone="no"?><!DOCTYPE svg PUBLIC "-//W3C//DTD SVG 1.1//EN" "http://www.w3.org/Graphics/SVG/1.1/DTD/svg11.dtd"><svg t="1620701382275" class="icon" viewBox="0 0 1024 1024" version="1.1" xmlns="http://www.w3.org/2000/svg" p-id="5466" xmlns:xlink="http://www.w3.org/1999/xlink" width="128" height="128"><defs><style type="text/css"></style></defs><path d="M379.81 807.23l86.56-31.48 51.93-75.53 51.93 73.96 66.09-20.46-58.23 103.86L593.83 952l-89.69-59.8-44.06 56.65-1.58-89.7z" fill="#FFE66F" p-id="5467"></path><path d="M316.25 338.6a216.15 227.02 0 1 0 432.3 0 216.15 227.02 0 1 0-432.3 0Z" fill="#FFE66F" p-id="5468"></path><path d="M588.49 959.51c-5.95 0-12.41-1.59-18.2-4.49l-53.57-28.26-53.42 28.2c-5.66 2.83-11.57 4.22-17.73 4.22-14.27 0-27.31-7.5-34.02-19.56-4.45-8.9-5.6-16.58-3.88-25.17l10.37-59.24-43.11-43.09c-15.34-15.35-15.34-38.48 0-53.83 5.28-5.27 12.57-9.27 20.52-11.25l60-9.03 26.73-54.96c6.62-13.25 19.81-21.43 34.45-21.43 6.03 0 11.87 1.39 17.33 4.12 7.63 3.81 13.44 9.61 17.25 17.25l26.77 55.02 59.35 8.91c10.41 1.89 19.4 7.36 25.53 15.44 6.36 8.4 8.85 18.63 6.99 28.82-2.08 8.39-6.07 15.68-11.35 20.96l-43.1 43.06 10.4 59.4c1.85 10.14-0.3 20.3-6.05 28.55-5.74 8.23-14.5 13.78-24.7 15.63-1.73 0.46-4.09 0.73-6.56 0.73zM453.94 825.94c9.45 9.47 13.28 20.97 11.39 34.19l-8.63 49.29 43.67-23.04c5.18-3.94 11.52-6.03 18.4-6.03 5.62 0 11.42 1.42 16.77 4.09l44.34 23.4-8.59-49.08c-2.04-12.2 2.32-25.36 11.36-34.39l35.95-35.96-49.41-7.41c-12.83-1.84-22.79-9.12-28.75-21.06l-22.06-44.13-22.21 45.64c-5.52 11-16.48 19.07-28.67 21.1l-49.52 7.43 35.96 35.96z" fill="#5F55AC" p-id="5469"></path><path d="M532.46 890.62l56.65 29.9-11.01-62.94c-1.58-9.45 1.57-20.46 9.44-28.32l45.64-45.64-62.94-9.44c-11.02-1.58-18.88-7.87-23.6-17.31l-28.32-56.65-28.33 58.22c-4.73 9.44-14.17 15.74-23.6 17.31l-62.94 9.44 45.64 45.63c7.86 7.87 11.02 17.31 9.44 28.33l-11.02 62.94 56.65-29.89c7.84-6.3 18.86-6.3 28.3-1.58z m-72.38 58.23c-15.74 7.87-34.62 1.57-42.49-12.59-3.14-6.3-4.72-12.59-3.14-20.46l11.02-62.94-45.64-45.63c-12.59-12.59-12.59-31.47 0-44.07 4.73-4.72 11.02-7.87 17.31-9.44l62.95-9.45 28.32-58.22c7.86-15.74 26.75-22.03 42.49-14.16 6.29 3.14 11.02 7.87 14.16 14.16l28.33 58.22 62.94 9.45c17.31 3.14 29.9 18.88 26.75 36.19-1.57 6.3-4.73 12.59-9.45 17.31l-45.64 45.63 11.02 62.94c3.16 17.31-7.86 33.05-25.17 36.2-6.3 1.57-14.16 0-20.46-3.15l-56.65-29.89-56.65 29.9z m0 0" fill="#5F55AC" p-id="5470"></path><path d="M889.67 958.9c-13.33 0-22.64-9.31-22.64-22.64 0-195.76-159.27-355.03-355.03-355.03-195.76 0-355.03 159.27-355.03 355.03 0 13.33-9.31 22.64-22.64 22.64-13.34 0-22.65-9.31-22.65-22.64 0-177.7 116.06-332.39 284.48-382.57-87.38-45.09-142.86-133.9-142.86-231.14 0-142.64 116.04-258.68 258.68-258.68s258.68 116.04 258.68 258.68c0 97.24-55.48 186.05-142.86 231.14 168.44 50.17 284.48 204.87 284.48 382.57 0.03 13.33-9.28 22.64-22.61 22.64zM512 109.15c-117.68 0-213.4 95.73-213.4 213.4s95.73 213.4 213.4 213.4 213.4-95.73 213.4-213.4c0.01-117.67-95.72-213.4-213.4-213.4z" fill="#5F55AC" p-id="5471"></path><path d="M607.99 555.44c91.27-39.34 155.79-129.03 155.79-232.89 0-138.48-113.3-251.78-251.78-251.78s-251.78 113.3-251.78 251.78c0 103.85 64.52 193.55 155.79 232.89-171.53 42.49-297.41 196.7-297.41 380.82 0 9.44 6.3 15.74 15.74 15.74 9.44 0 15.74-6.3 15.74-15.74 0-199.85 162.08-361.93 361.93-361.93s361.93 162.08 361.93 361.93c0 9.44 6.3 15.74 15.74 15.74s15.74-6.3 15.74-15.74c-0.02-184.12-125.9-338.33-297.43-380.82zM291.7 322.55c0-121.17 99.14-220.31 220.31-220.31s220.31 99.13 220.31 220.31c0 121.16-99.14 220.3-220.31 220.3S291.7 443.71 291.7 322.55z m0 0" fill="#5F55AC" p-id="5472"></path></svg>