<?xml version="1.0" standalone="no"?><!DOCTYPE svg PUBLIC "-//W3C//DTD SVG 1.1//EN" "http://www.w3.org/Graphics/SVG/1.1/DTD/svg11.dtd"><svg t="1620736530788" class="icon" viewBox="0 0 1024 1024" version="1.1" xmlns="http://www.w3.org/2000/svg" p-id="7245" xmlns:xlink="http://www.w3.org/1999/xlink" width="128" height="128"><defs><style type="text/css"></style></defs><path d="M294.7 790H116.3c-9 0-16.4-7.4-16.4-16.4V472.2c0-9 7.4-16.4 16.4-16.4h178.4c9 0 16.4 7.4 16.4 16.4v301.5c0 9-7.4 16.3-16.4 16.3z m-162.1-32.8h145.6V488.6H132.6v268.6zM890.1 790H711.7c-9 0-16.4-7.4-16.4-16.4v-657c0-9 7.4-16.4 16.4-16.4h178.4c9 0 16.4 7.4 16.4 16.4v657c0 9.1-7.3 16.4-16.4 16.4z m-162-32.8h145.6V133H728.1v624.2z" fill="#294D7C" p-id="7246"></path><path d="M890.1 795H711.7c-11.8 0-21.4-9.6-21.4-21.4v-657c0-11.8 9.6-21.4 21.4-21.4h178.4c11.8 0 21.4 9.6 21.4 21.4v657c0 11.8-9.6 21.4-21.4 21.4zM711.7 105.3c-6.3 0-11.4 5.1-11.4 11.4v657c0 6.3 5.1 11.4 11.4 11.4h178.4c6.3 0 11.4-5.1 11.4-11.3v-657c0-6.3-5.1-11.4-11.4-11.4H711.7zM294.7 795H116.3c-11.8 0-21.4-9.6-21.4-21.4V472.2c0-11.8 9.6-21.4 21.4-21.4h178.4c11.8 0 21.4 9.6 21.4 21.4v301.5c0 11.7-9.6 21.3-21.4 21.3zM116.3 460.8c-6.3 0-11.4 5.1-11.4 11.4v301.4c0 6.3 5.1 11.4 11.4 11.4h178.4c6.3 0 11.4-5.1 11.4-11.3V472.2c0-6.3-5.1-11.4-11.4-11.4H116.3z m762.4 301.4H723.1V128h155.6v634.2z m-145.6-10h135.6V138H733.1v614.2z m-449.9 10H127.6V483.6h155.6v278.6z m-145.6-10h135.6V493.6H137.6v258.6z" fill="#294D7C" p-id="7247"></path><path d="M573.6 804.1h-146c-21.5 0-39-19.6-39-43.7V359.3c0-24.1 17.5-43.7 39-43.7h146c21.5 0 39 19.6 39 43.7v401.1c0 24.1-17.5 43.7-39 43.7z m-144.2-40h142.4c0.4-0.7 0.8-1.9 0.8-3.7V359.3c0-1.7-0.4-3-0.8-3.7H429.4c-0.4 0.7-0.8 1.9-0.8 3.7v401.1c0 1.7 0.4 3 0.8 3.7zM919 873.5c0 11.3-9.6 20.4-21.5 20.4h-782c-11.9 0-21.5-9.1-21.5-20.4 0-11.3 9.6-20.4 21.5-20.4h782c11.9 0 21.5 9.1 21.5 20.4z" fill="#558DF7" p-id="7248"></path></svg>